<svg id="Capa_1" enable-background="new 0 0 466.457 466.457" height="512" viewBox="0 0 466.457 466.457" width="512" xmlns="http://www.w3.org/2000/svg"><g><g><g><path d="m202.893 93.592c-3.759 0-7.36-2.129-9.061-5.758l-17.778-37.926c-2.344-5-.191-10.955 4.811-13.299 4.999-2.345 10.955-.19 13.299 4.81l17.778 37.926c2.344 5.001.19 10.955-4.811 13.299-1.372.643-2.817.948-4.238.948z" fill="#7844c1"/></g><g><path d="m282.217 90.541c-1.421 0-2.865-.305-4.237-.948-5.001-2.344-7.154-8.298-4.811-13.299l16.348-34.875c2.345-5 8.299-7.154 13.299-4.81 5.001 2.344 7.154 8.298 4.81 13.299l-16.348 34.875c-1.701 3.628-5.302 5.758-9.061 5.758z" fill="#7844c1"/></g><g><path d="m88.069 318.155h-44.875c-5.523 0-10-4.477-10-10s4.477-10 10-10h44.875c5.523 0 10 4.477 10 10s-4.477 10-10 10z" fill="#7844c1"/></g><g><path d="m103.249 247.285c-1.697 0-3.415-.432-4.991-1.341l-39.1-22.574c-4.783-2.761-6.422-8.877-3.66-13.66s8.877-6.421 13.66-3.66l39.1 22.574c4.783 2.761 6.422 8.877 3.66 13.66-1.851 3.207-5.213 5.001-8.669 5.001z" fill="#7844c1"/></g><g><path d="m64.168 411.603c-3.456 0-6.817-1.793-8.669-5.001-2.762-4.783-1.123-10.899 3.66-13.66l44.732-25.826c4.783-2.763 10.898-1.123 13.66 3.66s1.123 10.899-3.66 13.66l-44.732 25.826c-1.575.909-3.295 1.341-4.991 1.341z" fill="#7844c1"/></g><g><path d="m440.485 318.155h-49.358c-5.523 0-10-4.477-10-10s4.477-10 10-10h49.358c5.523 0 10 4.477 10 10s-4.477 10-10 10z" fill="#7844c1"/></g><g><path d="m419.512 411.603c-1.697 0-3.416-.432-4.991-1.341l-39.054-22.548c-4.783-2.761-6.422-8.878-3.66-13.66 2.762-4.783 8.879-6.421 13.66-3.66l39.054 22.548c4.783 2.761 6.422 8.878 3.66 13.66-1.851 3.208-5.213 5.001-8.669 5.001z" fill="#7844c1"/></g><g><path d="m376.28 249.681c-3.456 0-6.817-1.793-8.669-5.002-2.762-4.783-1.123-10.899 3.66-13.66l43.25-24.971c4.782-2.763 10.899-1.123 13.66 3.66 2.762 4.783 1.123 10.899-3.66 13.66l-43.25 24.971c-1.575.91-3.294 1.342-4.991 1.342z" fill="#7844c1"/></g><ellipse cx="241.84" cy="149.487" fill="#a183e2" rx="83.118" ry="82.038"/><path d="m241.84 67.449c-3.668 0-7.273.259-10.815.714 26.143 3.902 47.006 23.691 52.145 49.092 1.041 5.146-3.718 9.642-8.808 8.354-9.249-2.34-25.734-4.342-52.807-1.293-42.327 4.767-58.771 31.55-62.146 14.787-.436 3.404-.686 6.864-.686 10.384 0 45.309 37.213 82.039 83.118 82.039s83.118-36.73 83.118-82.039c-.001-45.308-37.214-82.038-83.119-82.038z" fill="#9762e2"/><ellipse cx="241.84" cy="308.155" fill="#ef8bbd" rx="160.239" ry="158.301"/><g fill="#a183e2"><circle cx="160.377" cy="264.421" r="27.231"/><circle cx="177.623" cy="356.099" r="24.508"/><circle cx="305.61" cy="356.099" r="24.508"/></g><path d="m241.84 149.854c-4.915 0-9.774.23-14.576.658 66.811 6.61 118.974 62.316 118.974 130.061 0 72.194-59.241 130.719-132.319 130.719-68.573 0-124.961-51.533-131.652-117.536-.433 4.744-.667 9.544-.667 14.399 0 87.428 71.741 158.301 160.239 158.301s160.239-70.874 160.239-158.301c.001-87.427-71.741-158.301-160.238-158.301z" fill="#e068bd"/><circle cx="322.856" cy="264.421" fill="#a183e2" r="27.231"/><path d="m330.118 356.099c0-3.396-.692-6.631-1.941-9.572-7.495 12.644-17.076 23.933-28.281 33.404 1.834.438 3.745.676 5.713.676 13.536 0 24.509-10.973 24.509-24.508z" fill="#9762e2"/><path d="m241.84 466.457c21.802 0 42.583-4.309 61.528-12.1-8.48-6.241-60.368-45.705-62.834-78.582 0 0-12.751 42.389-66.538 75.821 20.604 9.528 43.592 14.861 67.844 14.861z" fill="#a183e2"/><path d="m241.84 466.457c21.813 0 42.603-4.313 61.557-12.111-5.876-4.481-33.591-25.951-50.245-48.897-11.001 3.221-21.365 5.079-33.043 5.695-10.135 12.093-25.741 27.698-46.126 40.447 20.607 9.53 43.6 14.866 67.857 14.866z" fill="#9762e2"/><g><path d="m240.787 386.607c-3.314 0-6-2.686-6-6v-227.142c0-3.313 2.686-6 6-6s6 2.687 6 6v227.142c0 3.314-2.686 6-6 6z" fill="#b74a96"/></g></g><g><path d="m164.861 218.137c-3.011 0-5.988-1.354-7.956-3.931-3.349-4.386-2.515-10.653 1.868-14.006.86-.658 21.332-16.187 43.701-21.513 5.374-1.283 10.765 2.039 12.044 7.412s-2.039 10.765-7.412 12.045c-18.159 4.324-36.011 17.811-36.189 17.947-1.81 1.379-3.942 2.046-6.056 2.046z" fill="#fff"/></g><g><path d="m275.079 195.871c-.224 0-.448-.007-.675-.022l-6.755-.45c-5.511-.367-9.68-5.132-9.313-10.643.368-5.511 5.13-9.686 10.643-9.313l6.755.45c5.511.367 9.68 5.132 9.313 10.643-.352 5.283-4.748 9.335-9.968 9.335z" fill="#fff"/></g><path d="m55.233 7.462 8.214 23.098c.352.989 1.048 1.773 1.927 2.168l20.521 9.246c2.899 1.306 2.899 5.925 0 7.232l-20.521 9.246c-.879.396-1.575 1.18-1.927 2.168l-8.214 23.098c-1.161 3.263-5.265 3.263-6.425 0l-8.214-23.098c-.352-.989-1.048-1.773-1.927-2.168l-20.521-9.246c-2.899-1.306-2.899-5.925 0-7.232l20.521-9.246c.879-.396 1.575-1.18 1.927-2.168l8.214-23.098c1.16-3.263 5.264-3.263 6.425 0z" fill="#c2b2eb"/><path d="m409.591 82.354 6.093 17.133c.261.734.777 1.315 1.429 1.609l15.222 6.858c2.151.969 2.151 4.395 0 5.364l-15.222 6.858c-.652.294-1.168.875-1.429 1.609l-6.093 17.133c-.861 2.421-3.905 2.421-4.766 0l-6.093-17.133c-.261-.734-.777-1.315-1.429-1.609l-15.222-6.858c-2.15-.969-2.15-4.395 0-5.364l15.222-6.858c.652-.294 1.168-.875 1.429-1.609l6.093-17.133c.861-2.421 3.906-2.421 4.766 0z" fill="#c2b2eb"/><g fill="#a183e2"><ellipse cx="429.326" cy="17.937" rx="17.937" ry="17.937" transform="matrix(.232 -.973 .973 .232 312.475 431.445)"/><circle cx="80.304" cy="125.127" r="7.737"/></g></g></svg>