<svg id="Capa_1" enable-background="new 0 0 483.671 483.671" height="512" viewBox="0 0 483.671 483.671" width="512" xmlns="http://www.w3.org/2000/svg"><g><g><path d="m113.886 449.63c105.632 105.632 287.91-68.305 287.91-68.305 113.864-113.865-105.778-333.507-219.643-219.642 0 0-173.899 182.315-68.267 287.947z" fill="#d49c8d"/><path d="m365.928 175.441c37.658 44.038 52.772 104.928 10.182 147.518 0 0-147.402 140.656-232.822 55.236-73.319-73.319 19.897-192.323 47.779-224.569-3.034 2.477-6.01 5.153-8.914 8.056 0 0-173.899 182.316-68.267 287.948s287.91-68.305 287.91-68.305c60.759-60.759 26.552-151.631-35.868-205.884z" fill="#c7758d"/><g><path d="m145.362 298.981c-1.432 0-2.885-.309-4.265-.96-4.993-2.359-7.129-8.32-4.77-13.314 4.665-9.875 10.07-19.681 16.525-29.979 2.933-4.68 9.102-6.096 13.784-3.162 4.679 2.933 6.095 9.104 3.161 13.784-6.03 9.621-11.064 18.747-15.387 27.9-1.706 3.614-5.3 5.731-9.048 5.731z" fill="#fff"/></g><g><path d="m178.702 244.832c-2.094 0-4.205-.655-6.007-2.012-4.412-3.322-5.296-9.591-1.975-14.003.89-1.181 1.784-2.357 2.687-3.529 3.37-4.376 9.649-5.19 14.024-1.821 4.376 3.37 5.191 9.648 1.821 14.024-.857 1.114-1.709 2.232-2.554 3.355-1.965 2.611-4.962 3.986-7.996 3.986z" fill="#fff"/></g><path d="m437.858 125.658c-9.809-9.809-25.713-9.809-35.522 0l-31.109 31.109 35.522 35.522 31.109-31.109c9.81-9.809 9.81-25.713 0-35.522z" fill="#b07676"/><path d="m415.963 393.383c128.96-140.364-105.466-374.79-245.83-245.83-2.858 2.625-3.013 7.058-.324 9.748l236.406 236.406c2.69 2.689 7.123 2.533 9.748-.324z" fill="#b07676"/><path d="m375.888 153.179c34.034 43.905 44.698 103.733 2.338 149.839-1.941 2.113-5.22 2.228-7.209.24l-174.81-174.812c-.042-.042-.07-.093-.11-.136-8.922 5.197-17.611 11.569-25.963 19.243-2.857 2.625-3.013 7.058-.324 9.748l236.406 236.406c2.689 2.689 7.123 2.534 9.748-.324 70.664-76.915 32.216-182.068-40.076-240.204z" fill="#a45775"/><g><path d="m451.621 283.113h-73.678c-5.523 0-10-4.477-10-10s4.477-10 10-10h73.678c5.523 0 10 4.477 10 10s-4.477 10-10 10z" fill="#913c5d"/></g><g><path d="m448.841 344.279h-98.7c-5.523 0-10-4.477-10-10s4.477-10 10-10h98.7c5.522 0 10 4.477 10 10s-4.478 10-10 10z" fill="#913c5d"/></g><g><path d="m187.696 420.049c-1.535 0-3.071-.586-4.242-1.757-2.344-2.343-2.344-6.142-.001-8.485l8.797-8.797c2.344-2.343 6.144-2.343 8.485 0 2.344 2.343 2.344 6.142.001 8.485l-8.797 8.797c-1.171 1.171-2.708 1.757-4.243 1.757z" fill="#b3586b"/></g><g><path d="m254.302 419.427c-1.536 0-3.071-.586-4.243-1.757-2.343-2.343-2.343-6.143.001-8.485l8.798-8.797c2.343-2.344 6.142-2.342 8.485 0 2.343 2.343 2.343 6.143-.001 8.485l-8.798 8.797c-1.171 1.171-2.707 1.757-4.242 1.757z" fill="#b3586b"/></g><g><path d="m270.511 370.818c-1.536 0-3.071-.586-4.243-1.757-2.343-2.343-2.343-6.143.001-8.485l8.798-8.797c2.343-2.344 6.143-2.342 8.485 0 2.343 2.343 2.343 6.143-.001 8.485l-8.798 8.797c-1.171 1.171-2.707 1.757-4.242 1.757z" fill="#b3586b"/></g></g><path d="m61.311 107.833 8.214 23.098c.352.989 1.048 1.773 1.927 2.169l20.521 9.246c2.899 1.306 2.899 5.925 0 7.232l-20.521 9.246c-.879.396-1.575 1.18-1.927 2.168l-8.214 23.098c-1.16 3.263-5.265 3.263-6.425 0l-8.214-23.098c-.352-.989-1.048-1.773-1.927-2.168l-20.521-9.246c-2.899-1.306-2.899-5.925 0-7.232l20.521-9.246c.879-.396 1.575-1.18 1.927-2.169l8.214-23.098c1.161-3.263 5.265-3.263 6.425 0z" fill="#ffc7b6"/><path d="m193.059 1.815 6.093 17.133c.261.734.777 1.315 1.429 1.609l15.222 6.858c2.151.969 2.151 4.395 0 5.364l-15.222 6.858c-.652.294-1.168.875-1.429 1.609l-6.093 17.133c-.861 2.421-3.905 2.421-4.766 0l-6.093-17.132c-.261-.734-.777-1.315-1.429-1.609l-15.222-6.858c-2.15-.969-2.15-4.395 0-5.364l15.222-6.858c.652-.294 1.168-.875 1.429-1.609l6.093-17.133c.861-2.421 3.905-2.421 4.766-.001z" fill="#ffc7b6"/><g fill="#ffa585"><ellipse cx="364.586" cy="48.204" rx="17.937" ry="17.937" transform="matrix(.23 -.973 .973 .23 233.907 391.962)"/><circle cx="76.505" cy="30.723" r="7.737"/></g></g></svg>